<?xml version="1.0" encoding="UTF-8" standalone="no"?>
<!-- Created with Inkscape (http://www.inkscape.org/) -->

<svg
   width="256"
   height="256"
   viewBox="0 0 256 256"
   version="1.1"
   id="svg5"
   xml:space="preserve"
   sodipodi:docname="welcome.svg"
   inkscape:version="1.2.2 (b0a8486541, 2022-12-01)"
   inkscape:export-filename="avatar.jpg"
   inkscape:export-xdpi="192"
   inkscape:export-ydpi="192"
   xmlns:inkscape="http://www.inkscape.org/namespaces/inkscape"
   xmlns:sodipodi="http://sodipodi.sourceforge.net/DTD/sodipodi-0.dtd"
   xmlns="http://www.w3.org/2000/svg"
   xmlns:svg="http://www.w3.org/2000/svg"><sodipodi:namedview
     id="namedview7"
     pagecolor="#505050"
     bordercolor="#eeeeee"
     borderopacity="1"
     inkscape:showpageshadow="0"
     inkscape:pageopacity="0"
     inkscape:pagecheckerboard="0"
     inkscape:deskcolor="#505050"
     inkscape:document-units="px"
     showgrid="false"
     inkscape:zoom="1.6233491"
     inkscape:cx="145.07046"
     inkscape:cy="101.02571"
     inkscape:window-width="1920"
     inkscape:window-height="1043"
     inkscape:window-x="0"
     inkscape:window-y="0"
     inkscape:window-maximized="1"
     inkscape:current-layer="layer1" /><defs
     id="defs2"><clipPath
       clipPathUnits="userSpaceOnUse"
       id="clipPath397"><g
         id="g401"><circle
           style="fill:#ff2a2a;stroke-width:11.5;stroke-linecap:round;stroke-linejoin:round"
           id="circle399"
           cx="256"
           cy="256"
           r="256" /></g></clipPath><clipPath
       clipPathUnits="userSpaceOnUse"
       id="clipPath403"><g
         id="g407"><circle
           style="fill:#ff2a2a;stroke-width:11.5;stroke-linecap:round;stroke-linejoin:round"
           id="circle405"
           cx="256"
           cy="256"
           r="256" /></g></clipPath><clipPath
       clipPathUnits="userSpaceOnUse"
       id="clipPath409"><g
         id="g413"><circle
           style="fill:#ff2a2a;stroke-width:11.5;stroke-linecap:round;stroke-linejoin:round"
           id="circle411"
           cx="256"
           cy="256"
           r="256" /></g></clipPath><clipPath
       clipPathUnits="userSpaceOnUse"
       id="clipPath415"><g
         id="g419"><circle
           style="fill:#ff2a2a;stroke-width:11.5;stroke-linecap:round;stroke-linejoin:round"
           id="circle417"
           cx="256"
           cy="256"
           r="256" /></g></clipPath><clipPath
       clipPathUnits="userSpaceOnUse"
       id="clipPath421"><g
         id="g425"><circle
           style="fill:#ff2a2a;stroke-width:11.5;stroke-linecap:round;stroke-linejoin:round"
           id="circle423"
           cx="256"
           cy="256"
           r="256" /></g></clipPath><clipPath
       clipPathUnits="userSpaceOnUse"
       id="clipPath427"><g
         id="g431"
         transform="scale(-1)"><circle
           style="fill:#ff2a2a;stroke-width:11.5;stroke-linecap:round;stroke-linejoin:round"
           id="circle429"
           cx="256"
           cy="256"
           r="256" /></g></clipPath><clipPath
       clipPathUnits="userSpaceOnUse"
       id="clipPath433"><g
         id="g437"><circle
           style="fill:#ff2a2a;stroke-width:11.5;stroke-linecap:round;stroke-linejoin:round"
           id="circle435"
           cx="256"
           cy="256"
           r="256" /></g></clipPath></defs><g
     inkscape:label="Layer 1"
     inkscape:groupmode="layer"
     id="layer1"><rect
       style="fill:#000000;stroke:none;stroke-width:23;stroke-linecap:round;stroke-linejoin:round;stroke-dasharray:none;paint-order:normal"
       id="rect1727"
       width="512"
       height="512"
       x="0"
       y="0"
       clip-path="url(#clipPath433)"
       transform="scale(0.5)" /><circle
       style="fill:none;stroke:#ffffff;stroke-width:11.5;stroke-linecap:round;stroke-linejoin:round;stroke-dasharray:none;paint-order:normal"
       id="path1476"
       cx="-255.99318"
       cy="-191.91383"
       r="64.25"
       transform="scale(-0.5)"
       clip-path="url(#clipPath427)" /><path
       style="fill:none;stroke:#ffffff;stroke-width:11.5;stroke-linecap:round;stroke-linejoin:round;stroke-dasharray:none"
       d="m 251.05128,256.29365 c 0,0 -68.91556,262.73317 -250.1388521,262.5462"
       id="path692"
       sodipodi:nodetypes="cc"
       clip-path="url(#clipPath421)"
       transform="scale(0.5)" /><path
       style="fill:none;stroke:#ffffff;stroke-width:11.5;stroke-linecap:round;stroke-linejoin:round;stroke-dasharray:none"
       d="m 256.7333,259.66312 c 0,0 64.04832,242.86687 254.13885,257.96371"
       id="path692-6"
       sodipodi:nodetypes="cc"
       clip-path="url(#clipPath415)"
       transform="scale(0.5)" /><path
       style="fill:none;stroke:#ffffff;stroke-width:11.5;stroke-linecap:round;stroke-linejoin:round;stroke-dasharray:none"
       d="m 88.51746,180.90047 c 0,0 9.90226,86.79035 112.41972,102.51746"
       id="path768"
       clip-path="url(#clipPath409)"
       transform="scale(0.5)" /><path
       style="fill:none;stroke:#ffffff;stroke-width:11.5;stroke-linecap:round;stroke-linejoin:round;stroke-dasharray:none"
       d="m 372.39451,320.36706 c 0,0 -5.59327,-24.39425 -63.5,-28.81468"
       id="path768-7"
       clip-path="url(#clipPath403)"
       transform="scale(0.5)" /><path
       style="fill:none;stroke:#ffffff;stroke-width:11.5;stroke-linecap:round;stroke-linejoin:round;stroke-dasharray:none"
       d="m 189.8903,394.0128 c 6.98983,-11.06722 16.94555,-14.21091 28.8758,-11.82486 11.93025,2.38605 11.98372,10.65988 26.54586,10.65988 14.56214,0 17.47864,-10.0774 32.04078,-10.0774 14.56214,0 18.13852,10.07741 33.86563,11.24238 15.72711,1.16497 -5.8433,-16.19797 18.39106,13.72711"
       id="path801"
       sodipodi:nodetypes="czzzzc"
       clip-path="url(#clipPath397)"
       transform="scale(0.5)" /><text
       xml:space="preserve"
       style="font-size:24px;fill:none;stroke:#ffffff;stroke-width:11.5;stroke-linecap:round;stroke-linejoin:round"
       x="21.897247"
       y="28.056149"
       id="text455"><tspan
         sodipodi:role="line"
         id="tspan453"
         x="21.897247"
         y="28.056149"
         style="stroke-width:11.5" /></text><text
       xml:space="preserve"
       style="font-style:normal;font-variant:normal;font-weight:normal;font-stretch:normal;font-size:42.6666px;font-family:'Droid Sans';-inkscape-font-specification:'Droid Sans';fill:#ffffff;fill-opacity:1;stroke:#ffffff;stroke-width:4;stroke-linecap:round;stroke-linejoin:round;stroke-dasharray:none"
       x="265.54984"
       y="46.208004"
       id="text1169"><tspan
         sodipodi:role="line"
         id="tspan1167"
         x="265.54984"
         y="46.208004"
         style="stroke-width:4" /></text><path
       d="m 121.04845,12.820544 2.35447,0.414209 1.06163,15.20294 6.1749,-13.929856 2.61992,0.460907 1.06163,15.202939 6.1749,-13.929856 2.36601,0.41624 -7.35951,16.47006 -2.93154,-0.515733 -1.00413,-15.59738 -6.30165,14.312116 -2.93154,-0.515728 z"
       id="path2279"
       style="font-size:48px;fill:#ffffff;stroke-width:11.5;stroke-linecap:round;stroke-linejoin:round" /><path
       d="m 154.21977,31.539523 -0.33089,1.001434 -9.41351,-3.110395 q -0.56502,2.158262 0.20228,3.645985 0.7821,1.48027 2.81836,2.153084 1.17947,0.389721 2.37664,0.464399 1.2083,0.07837 2.48993,-0.139948 l -0.63972,1.936113 q -1.256,0.103354 -2.4941,-0.03422 -1.2381,-0.137564 -2.4287,-0.530961 -2.98205,-0.98533 -4.15546,-3.298379 -1.16227,-2.309372 -0.1843,-5.269174 1.01107,-3.059943 3.2498,-4.307267 2.25354,-1.254773 5.05757,-0.328273 2.51471,0.83091 3.43558,2.937096 0.93567,2.098738 0.0165,4.880506 z m -1.84885,-1.277357 q 0.53292,-1.687539 -0.0597,-2.994133 -0.58153,-1.302917 -2.09481,-1.802936 -1.71357,-0.566192 -3.06825,0.05994 -1.34355,0.629811 -2.08023,2.336416 z"
       id="path2281"
       style="font-size:48px;fill:#ffffff;stroke-width:11.5;stroke-linecap:round;stroke-linejoin:round" /><path
       d="m 162.38944,22.962791 1.98311,0.84657 -7.15905,16.770225 -1.98312,-0.846575 z"
       id="path2283"
       style="font-size:48px;fill:#ffffff;stroke-width:11.5;stroke-linecap:round;stroke-linejoin:round" /><path
       d="m 175.56349,35.58755 -0.93367,1.786336 q -0.57667,-0.86999 -1.28314,-1.516928 -0.69066,-0.651895 -1.52152,-1.086155 -1.85904,-0.971667 -3.50605,-0.325124 -1.64158,0.636184 -2.75438,2.765248 -1.1128,2.12907 -0.70345,3.850439 0.41479,1.710986 2.27382,2.682652 0.83086,0.434266 1.75494,0.639572 0.93989,0.200354 1.98338,0.177289 l -0.92281,1.76557 q -0.99512,-0.04407 -1.95484,-0.307703 -0.94934,-0.258177 -1.9152,-0.763012 -2.62758,-1.373361 -3.31195,-3.833503 -0.68437,-2.460143 0.78127,-5.26428 1.48736,-2.845677 3.89746,-3.661984 2.42048,-0.81088 5.14153,0.611335 0.88279,0.461404 1.62632,1.088042 0.74896,0.616249 1.34828,1.3923 z"
       id="path2285"
       style="font-size:48px;fill:#ffffff;stroke-width:11.5;stroke-linecap:round;stroke-linejoin:round" /><path
       d="m 183.64061,41.885564 q -1.44022,-0.966355 -3.03451,-0.399071 -1.58777,0.557555 -2.90018,2.513519 -1.31242,1.955963 -1.24269,3.63978 0.086,1.680616 1.53594,2.653501 1.43048,0.959826 3.02478,0.392542 1.5943,-0.567284 2.90018,-2.513518 1.29936,-1.9365 1.2199,-3.626846 -0.0729,-1.700081 -1.50342,-2.659907 z m 1.01859,-1.51806 q 2.33548,1.567062 2.65006,3.97966 0.31457,2.412593 -1.48755,5.098397 -1.7956,2.676069 -4.15388,3.309327 -2.35177,0.623529 -4.68725,-0.943534 -2.34521,-1.573592 -2.65978,-3.98619 -0.29832,-2.415793 1.49727,-5.091867 1.80212,-2.685798 4.14416,-3.315857 2.35176,-0.623529 4.69697,0.950064 z"
       id="path2287"
       style="font-size:48px;fill:#ffffff;stroke-width:11.5;stroke-linecap:round;stroke-linejoin:round" /><path
       d="m 199.85481,55.961004 q 1.57666,-0.528698 2.87378,-0.281394 1.29711,0.247303 2.42267,1.27394 1.51517,1.382015 1.36633,3.197197 -0.14092,1.806528 -1.92571,3.763264 l -5.33852,5.852887 -1.60175,-1.460985 5.29114,-5.800941 q 1.27145,-1.393955 1.39392,-2.519429 0.12247,-1.125474 -0.89053,-2.049449 -1.23811,-1.129304 -2.70697,-0.962249 -1.46886,0.16705 -2.76401,1.586981 l -4.99893,5.480594 -1.60176,-1.460986 5.29114,-5.80094 q 1.27935,-1.402616 1.39392,-2.519434 0.12247,-1.125474 -0.90785,-2.065246 -1.22079,-1.113507 -2.69755,-0.937797 -1.46886,0.167055 -2.7561,1.578326 l -4.99894,5.480593 -1.60175,-1.460985 8.84488,-9.697095 1.60175,1.460985 -1.37412,1.506513 q 1.35888,-0.394262 2.50776,-0.123556 1.14888,0.270706 2.19651,1.226269 1.05629,0.963463 1.3026,2.171528 0.25498,1.215966 -0.32191,2.561409 z"
       id="path2289"
       style="font-size:48px;fill:#ffffff;stroke-width:11.5;stroke-linecap:round;stroke-linejoin:round" /><path
       d="m 214.57346,77.365183 -0.81802,0.665727 -6.25785,-7.689477 q -1.63818,1.514493 -1.79261,3.181291 -0.13795,1.668492 1.2157,3.331819 0.78408,0.963458 1.7527,1.670967 0.97601,0.716602 2.17356,1.2227 l -1.58152,1.287073 q -1.11405,-0.589158 -2.0833,-1.371701 -0.96925,-0.782549 -1.76072,-1.755091 -1.98239,-2.435912 -1.7258,-5.016846 0.26398,-2.57185 2.68172,-4.539441 2.49954,-2.034168 5.05765,-1.87988 2.5746,0.155987 4.43864,2.446468 1.67172,2.054162 1.3137,4.324809 -0.34154,2.272337 -2.61385,4.121582 z m -0.87022,-2.071853 q 1.35768,-1.135122 1.56176,-2.555255 0.21148,-1.411043 -0.79451,-2.647177 -1.13914,-1.39974 -2.61782,-1.601501 -1.47128,-0.192671 -3.01094,0.848805 z"
       id="path2291"
       style="font-size:48px;fill:#ffffff;stroke-width:11.5;stroke-linecap:round;stroke-linejoin:round" /><path
       d="m 214.26504,84.278124 1.32033,1.978867 -2.47602,1.652047 -1.32033,-1.978867 z m 12.07789,-8.058614 1.32034,1.978867 -6.38501,4.2602 -3.61015,2.127014 -1.05367,-1.579195 3.34348,-2.52668 z"
       id="path2293"
       style="font-size:48px;fill:#ffffff;stroke-width:11.5;stroke-linecap:round;stroke-linejoin:round" /></g></svg>
